# xmcd
# Track frame offsets:
# 150
# 15925
# 30010
# 48845
# 67462
# 76900
# 100117
# 115337
# 133485
# 151385
# 167115
# 180927
#
# Disc length: 2635 seconds
# Revision: 0
# Processed by: cddbd v1.4PL0 Copyright (c) Steve Scherf et al.
# Submitted via: VisiTrax 2.9.5.180 - For more info visit www.synapsa.com
#
DISCID=8e0a490c
DTITLE=Don Edwards - Desert Nights
DYEAR=1900
DGENRE=
TTITLE0=My Adobe Hacienda
TTITLE1=Mexicali Rose
TTITLE2=Travelin' Light
TTITLE3=Doggone Cowboy
TTITLE4=Desert Night
TTITLE5=Cowtown Blues
TTITLE6=Among My Souvenirs
TTITLE7=Cowboy Love Song
TTITLE8=Navajo Trail
TTITLE9=Minstrel Of The Range
TTITLE10=The Cowboy's Song
TTITLE11=Man Walks Among Us
EXTD=
EXTT0=
EXTT1=
EXTT2=
EXTT3=
EXTT4=
EXTT5=
EXTT6=
EXTT7=
EXTT8=
EXTT9=
EXTT10=
EXTT11=
PLAYORDER=
